<svg width="480" height="480" viewBox="0 0 75 75" xmlns="http://www.w3.org/2000/svg">
<g transform="matrix(0.5801443279401448,0,0,0.5801443279401448,0,1)" fill="#505050"><path xmlns="http://www.w3.org/2000/svg" d="M125.61,59h-.07c-13.24,2.92-23.26,7.57-30.84,12.86.35-2.34.73-4.67,1.15-7l.18-1c1.75-9.57,3-16.48,6.33-25.91.67-1.91,4.51-8.38,5.85-9.4h0a2,2,0,1,0-2.42-3.18h0C94.19,34.16,85.41,46.06,79,57.32Q75.91,37.24,67.89,8.46A2,2,0,0,0,66,7a2,2,0,0,0-1.95,1.36c-.6,1.79-9.62,29.11-12.29,54.08C45.22,49.79,35.58,35.5,22.21,25.38h0a2,2,0,1,0-2.42,3.18h0c1.34,1,5.17,7.49,5.85,9.4,3.31,9.42,4.58,16.34,6.33,25.91l.18,1c.43,2.33.8,4.66,1.15,7C25.71,66.54,15.7,61.89,2.46,59H2.39a2,2,0,0,0-.82,3.91h0c.09,0,9.39,2.51,22.83,26.73.84,1.91,10.82,24,25.9,28.43a41.59,41.59,0,0,0,14.93,3,31,31,0,0,0,16.44-4.58c12.85-6.67,21.17-25.08,21.93-26.82,13.34-24.05,22.6-26.67,22.82-26.73h0a2,2,0,0,0-.82-3.91ZM57.89,113.34a54.37,54.37,0,0,0-6-20.73,56.68,56.68,0,0,0-14-17.28c-.52-3.73-1.1-7.47-1.78-11.21l-.18-1c-1.73-9.45-3-16.36-6.18-25.62C50.81,59.88,59.25,91.64,59.34,92A48.57,48.57,0,0,1,61,101.64c.15,2.87,0,7-1.72,10.07A5.7,5.7,0,0,1,57.89,113.34Zm2.4,3.21a9.79,9.79,0,0,0,2.47-2.93,16.41,16.41,0,0,0,1.25-3,16.34,16.34,0,0,0,1.25,3,9.84,9.84,0,0,0,2.8,3.18A32.28,32.28,0,0,1,60.29,116.54Zm8.48-4.83c-1.69-3.12-1.87-7.19-1.72-10.07A48.57,48.57,0,0,1,68.66,92c.09-.36,8.53-32.12,29.62-54.48-3.18,9.26-4.45,16.17-6.18,25.62l-.18,1c-.68,3.73-1.25,7.48-1.78,11.21a56.68,56.68,0,0,0-14,17.28,54.38,54.38,0,0,0-6,20.73A5.72,5.72,0,0,1,68.76,111.71Z"></path><path xmlns="http://www.w3.org/2000/svg" d="M2,111.83H23a2,2,0,1,0,0-4H2a2,2,0,1,0,0,4Z"></path><path xmlns="http://www.w3.org/2000/svg" d="M2,119.81H37a2,2,0,1,0,0-4H2a2,2,0,1,0,0,4Z"></path><path xmlns="http://www.w3.org/2000/svg" d="M126,107.83H105a2,2,0,1,0,0,4h21a2,2,0,1,0,0-4Z"></path><path xmlns="http://www.w3.org/2000/svg" d="M126,115.82H91a2,2,0,1,0,0,4h35a2,2,0,1,0,0-4Z"></path></g></svg>