<svg version="1.0" xmlns="http://www.w3.org/2000/svg"
 width="640.000000pt" height="640.000000pt" viewBox="0 0 640.000000 640.000000"
 preserveAspectRatio="xMidYMid meet">

<defs>
    <radialGradient id="RadialGradient1">
      <stop offset="0%" stop-color="#1C9F82" />
      <stop offset="50%" stop-color="#44AD6F" />
      <stop offset="70%" stop-color="#4FBA65" />
      <stop offset="100%" stop-color="#54BA68" />
    </radialGradient>
</defs>

<g transform="translate(0.000000,800.000000) scale(0.100000,-0.100000)"
fill="url(#RadialGradient1)" stroke="none">
<path d="M2075 7865 c-198 -53 -406 -255 -464 -450 -7 -22 -18 -51 -24 -64
-16 -32 -16 -293 0 -346 7 -22 26 -86 43 -142 50 -168 180 -415 334 -638 145
-209 246 -338 561 -719 22 -26 49 -60 60 -75 16 -21 -124 98 -275 233 -68 61
-341 285 -433 355 -418 317 -758 471 -1040 471 -213 0 -372 -72 -530 -239
-109 -116 -158 -235 -165 -402 -6 -156 48 -318 153 -456 132 -176 350 -293
578 -310 48 -3 87 -10 87 -14 0 -5 -38 -9 -85 -9 -221 0 -412 -81 -553 -235
-73 -80 -125 -179 -147 -280 -9 -38 -20 -91 -26 -116 -8 -35 -6 -67 6 -135 24
-133 51 -205 104 -281 58 -82 195 -213 265 -254 144 -83 306 -117 467 -99 117
13 118 14 270 65 298 101 621 304 1079 680 74 61 167 135 205 165 l70 55 -83
-95 c-283 -322 -494 -588 -624 -785 -164 -248 -265 -474 -299 -671 -17 -99 -7
-293 21 -379 61 -194 239 -394 422 -474 116 -52 289 -61 438 -25 165 41 343
184 422 339 35 68 78 204 85 266 3 33 10 62 14 65 5 3 9 -1 10 -8 4 -71 31
-180 67 -275 54 -142 215 -315 356 -382 124 -60 172 -73 283 -79 130 -6 201 8
310 61 66 32 103 58 162 117 96 95 116 120 150 189 61 122 75 185 76 331 0 98
-5 150 -17 190 -9 30 -26 89 -38 130 -27 95 -115 283 -199 425 -95 161 -304
451 -479 664 -84 102 -171 209 -192 236 -22 28 -54 68 -72 90 l-32 40 35 -31
c475 -424 851 -719 1059 -831 30 -16 71 -39 90 -51 71 -42 297 -131 380 -149
127 -27 312 -25 410 5 107 33 203 93 296 186 102 103 154 193 181 316 12 55
14 214 3 235 -6 12 -10 25 -9 31 11 41 -81 236 -151 321 -140 173 -386 293
-598 293 -26 0 -41 4 -37 10 3 5 40 10 81 10 324 0 599 199 684 495 17 57 31
146 32 200 1 40 -26 174 -46 229 -33 91 -64 135 -181 253 -92 91 -111 106
-206 151 -207 99 -385 104 -648 20 -116 -37 -349 -144 -413 -189 -14 -11 -54
-35 -88 -54 -125 -71 -379 -259 -685 -510 -208 -170 -209 -171 -117 -65 117
133 362 427 451 540 215 276 389 589 448 807 24 87 27 116 27 258 0 147 -2
166 -27 240 -45 136 -170 303 -298 398 -53 39 -168 88 -242 102 -238 45 -462
-25 -627 -196 -96 -99 -169 -249 -191 -394 -14 -84 -18 -100 -25 -93 -3 3 -7
23 -8 44 -5 53 -30 148 -61 229 -60 161 -211 324 -370 400 -51 25 -121 51
-156 60 -79 18 -246 18 -314 0z"/>
</g>
<g transform="translate(0.000000,800.000000) scale(0.100000,-0.100000)"
fill="#07664E" stroke="none">
<path d="M2436 5643 c-3 -4 -6 -51 -6 -106 0 -83 3 -102 18 -114 29 -23 201
-103 221 -103 11 0 22 -4 26 -9 3 -6 26 -13 50 -17 25 -3 48 -10 51 -15 3 -5
23 -9 45 -9 l39 0 0 -1022 c0 -563 3 -1255 7 -1538 l6 -515 -49 -14 c-109 -30
-150 -43 -164 -50 -9 -5 -30 -12 -48 -15 -17 -4 -34 -12 -37 -17 -4 -5 -13 -9
-20 -9 -8 0 -39 -12 -70 -26 l-55 -26 0 -99 0 -99 815 0 816 0 -3 103 -3 102
-90 45 c-87 44 -138 63 -237 91 l-48 13 0 708 0 708 120 0 119 0 27 -47 c15
-27 91 -151 168 -276 78 -126 145 -237 151 -248 5 -10 13 -19 17 -19 5 0 8 -6
8 -14 0 -8 6 -21 13 -28 19 -19 97 -126 97 -133 0 -3 5 -11 11 -18 10 -12 125
-183 144 -215 6 -9 12 -19 15 -22 3 -3 28 -39 55 -80 28 -41 58 -83 68 -94 9
-11 17 -23 17 -26 0 -4 9 -18 20 -31 11 -13 23 -29 28 -34 5 -6 17 -24 28 -40
10 -17 21 -32 24 -35 3 -3 28 -34 55 -70 27 -36 54 -70 60 -76 5 -6 28 -36 50
-67 22 -31 43 -56 47 -57 4 0 51 -32 104 -70 l96 -70 474 0 474 0 0 84 c0 87
-12 116 -46 116 -8 0 -14 5 -14 10 0 6 -4 10 -9 10 -23 0 -198 115 -222 145
-26 34 -122 146 -149 175 -8 8 -35 40 -60 70 -25 30 -47 57 -51 60 -9 8 -197
235 -259 314 -8 10 -22 26 -30 35 -8 9 -31 37 -50 61 -35 45 -66 83 -85 104
-6 6 -26 31 -45 56 -19 25 -37 47 -40 50 -3 3 -21 25 -40 50 -19 25 -37 47
-40 50 -3 3 -28 34 -55 70 -27 36 -52 67 -55 70 -3 3 -38 49 -79 104 -40 54
-81 108 -91 120 -10 11 -28 32 -39 45 -12 13 -21 27 -21 31 0 3 -8 15 -18 26
-30 33 -82 102 -82 108 0 6 -78 118 -100 143 -12 14 -13 33 -2 33 4 0 32 32
62 71 30 40 69 89 85 109 17 21 41 53 55 71 14 18 30 37 35 43 9 9 58 72 87
111 10 13 76 95 96 120 10 11 37 47 62 80 25 33 51 66 58 73 7 8 25 30 40 50
15 21 49 64 75 97 27 33 54 67 60 75 90 115 82 105 158 209 34 47 70 94 80
105 11 11 29 34 41 52 16 23 33 35 58 39 19 3 49 10 65 15 17 5 55 17 85 26
30 9 75 25 100 36 24 11 54 24 65 29 25 11 55 30 72 46 14 12 19 156 7 187 -6
14 -79 16 -730 16 l-724 0 0 -104 0 -104 83 -40 c45 -22 96 -46 112 -53 65
-26 131 -48 146 -49 8 0 23 -6 32 -12 16 -12 13 -20 -32 -88 -28 -41 -53 -80
-58 -86 -4 -5 -12 -17 -18 -26 -14 -24 -268 -401 -278 -413 -16 -21 -147 -218
-147 -222 0 -2 -5 -9 -10 -16 -24 -27 -150 -219 -150 -228 0 -5 -4 -9 -9 -9
-4 0 -19 -22 -32 -50 -13 -27 -27 -50 -31 -50 -5 0 -8 -4 -8 -9 0 -7 -62 -106
-74 -119 -2 -1 -32 -7 -67 -12 -35 -5 -95 -16 -134 -25 -38 -9 -80 -17 -92
-18 l-22 -2 -2 280 c-2 154 -2 461 -1 681 l2 402 28 10 c15 5 55 18 90 28 34
11 62 22 62 26 0 5 7 8 15 8 15 0 158 72 182 91 9 8 13 40 13 109 0 80 -3 99
-16 104 -20 8 -1640 7 -1648 -1z"/>
</g>
</svg>
