<svg width="295" height="88" viewBox="0 0 295 88" xmlns="http://www.w3.org/2000/svg">
<g transform="matrix(1,0,0,1,0,0)" fill="#EEE"><rect y="0" height="1" width="1" opacity="0"></rect><rect y="83" width="295" height="5"></rect>
</g>
<g transform="matrix(0.5801443279401448,0,0,0.5801443279401448,0,1)" fill="#EEE"><path xmlns="http://www.w3.org/2000/svg" d="M125.61,59h-.07c-13.24,2.92-23.26,7.57-30.84,12.86.35-2.34.73-4.67,1.15-7l.18-1c1.75-9.57,3-16.48,6.33-25.91.67-1.91,4.51-8.38,5.85-9.4h0a2,2,0,1,0-2.42-3.18h0C94.19,34.16,85.41,46.06,79,57.32Q75.91,37.24,67.89,8.46A2,2,0,0,0,66,7a2,2,0,0,0-1.95,1.36c-.6,1.79-9.62,29.11-12.29,54.08C45.22,49.79,35.58,35.5,22.21,25.38h0a2,2,0,1,0-2.42,3.18h0c1.34,1,5.17,7.49,5.85,9.4,3.31,9.42,4.58,16.34,6.33,25.91l.18,1c.43,2.33.8,4.66,1.15,7C25.71,66.54,15.7,61.89,2.46,59H2.39a2,2,0,0,0-.82,3.91h0c.09,0,9.39,2.51,22.83,26.73.84,1.91,10.82,24,25.9,28.43a41.59,41.59,0,0,0,14.93,3,31,31,0,0,0,16.44-4.58c12.85-6.67,21.17-25.08,21.93-26.82,13.34-24.05,22.6-26.67,22.82-26.73h0a2,2,0,0,0-.82-3.91ZM57.89,113.34a54.37,54.37,0,0,0-6-20.73,56.68,56.68,0,0,0-14-17.28c-.52-3.73-1.1-7.47-1.78-11.21l-.18-1c-1.73-9.45-3-16.36-6.18-25.62C50.81,59.88,59.25,91.64,59.34,92A48.57,48.57,0,0,1,61,101.64c.15,2.87,0,7-1.72,10.07A5.7,5.7,0,0,1,57.89,113.34Zm2.4,3.21a9.79,9.79,0,0,0,2.47-2.93,16.41,16.41,0,0,0,1.25-3,16.34,16.34,0,0,0,1.25,3,9.84,9.84,0,0,0,2.8,3.18A32.28,32.28,0,0,1,60.29,116.54Zm8.48-4.83c-1.69-3.12-1.87-7.19-1.72-10.07A48.57,48.57,0,0,1,68.66,92c.09-.36,8.53-32.12,29.62-54.48-3.18,9.26-4.45,16.17-6.18,25.62l-.18,1c-.68,3.73-1.25,7.48-1.78,11.21a56.68,56.68,0,0,0-14,17.28,54.38,54.38,0,0,0-6,20.73A5.72,5.72,0,0,1,68.76,111.71Z"></path><path xmlns="http://www.w3.org/2000/svg" d="M2,111.83H23a2,2,0,1,0,0-4H2a2,2,0,1,0,0,4Z"></path><path xmlns="http://www.w3.org/2000/svg" d="M2,119.81H37a2,2,0,1,0,0-4H2a2,2,0,1,0,0,4Z"></path><path xmlns="http://www.w3.org/2000/svg" d="M126,107.83H105a2,2,0,1,0,0,4h21a2,2,0,1,0,0-4Z"></path><path xmlns="http://www.w3.org/2000/svg" d="M126,115.82H91a2,2,0,1,0,0,4h35a2,2,0,1,0,0-4Z"></path></g>
<g transform="matrix(1.6888267375673114,0,0,1.8,88.52712851146791,0)" fill="#EEE"><path d="M0.28 37.4 c0 -2.8 4.92 -9 5.76 -9 c0.36 0 2.4 0.28 2.4 0.64 c-0.04 0.72 -2.2 4 -2.76 4.92 c-0.36 0.6 -1.52 2.84 -1.52 3.56 c0 0.32 0.2 0.72 0.6 0.72 c5.2 0 5.84 -9.84 8.56 -9.84 c0.04 0 0.28 -0.04 0.6 -0.04 c0.68 0 1.6 0.12 1.6 0.76 c0 3.24 -4.08 5.4 -4.08 8.68 c0 0.56 1.12 0.88 1.84 0.88 c0.16 0 0.32 0 0.4 -0.04 c2.6 -1.2 4.24 -3.36 4.64 -6.88 c0.12 -1 -0.2 -3.56 1.44 -3.56 c1.6 0 2.08 0.96 2.08 2.32 c0 1.56 -1.2 3.28 -2.04 4.76 c-1.56 2.72 -4.28 4.8 -7.84 4.8 c-0.6 0 -1.2 -0.04 -1.84 -0.16 c-1.04 -0.2 -1.68 -1.88 -2.24 -1.88 c-1.2 0 -2.8 2.24 -4.56 2.24 c-1.28 0 -3.04 -1.56 -3.04 -2.88 z M25.632 40 c-0.16 -0.08 -0.36 -0.52 -0.36 -0.72 c0.2 -0.64 1 -1.4 1.32 -2.04 c0.08 -0.12 0.24 -0.76 0.52 -0.92 c0.92 -1.92 7.28 -14.04 8.6 -15.84 c1.2 -1.84 0.76 -4.12 3.72 -4.12 c0.08 0 1.64 -0.04 1.64 0.76 c0 0.48 -0.28 0.96 -0.56 1.32 c-2.24 4.48 -4.2 5.76 -6.04 11.16 l0.28 0 c1.28 -0.76 2.32 -1.12 3.72 -1.12 c1.2 0 2.56 0.92 2.56 1.8 c0 0.92 -0.68 2.08 -1.08 2.48 c-1.04 1.68 -2.32 3.84 -2.32 5.8 c0.28 0.12 0.52 0.16 0.8 0.16 c1 0 1.84 -0.64 2.64 -0.96 c0.2 0 0.2 0.2 0.2 0.32 c0 1.48 -3.52 2.12 -4.76 2.12 c-1.4 0 -2.72 -0.36 -2.72 -1.96 c0 -1.84 1.44 -3.08 2.24 -4.52 c0.68 -1.2 1.32 -2.68 1.32 -3.08 c0 -0.56 -0.64 -0.68 -1.12 -0.68 c-2.12 0 -2.6 2.04 -7.24 9.72 c-0.2 0.32 -1.68 0.52 -1.88 0.52 s-1.32 -0.08 -1.48 -0.2 z M46.38400000000001 37.52 c0 -1.84 2.4 -4.76 3.16 -6.24 c0.36 -0.64 0.88 -2.76 1.68 -2.76 l2.24 0 c0.28 0 0.72 0.44 0.72 0.72 c0 0.52 -1.32 2.84 -2.4 4.68 c-0.76 1.28 -1.92 2.56 -1.92 4.12 c0 0.32 0 0.68 0.6 0.68 c0.96 0 2.28 -1 2.84 -1 c0.28 0 0.36 0.28 0.36 0.4 c0 1.04 -3.76 1.92 -4.68 1.92 c-1.6 0 -2.6 -0.84 -2.6 -2.52 z M51.944 25.16 c0 -1.12 0.84 -2.4 2.24 -2.4 c0.92 0 2.04 0.92 2.04 1.84 c0 1.32 -1 2.04 -2.24 2.04 c-1 0 -1.76 -0.28 -2.04 -1.48 z M59.536 37.96 c0.64 -3.68 2.84 -6.28 4.48 -9.4 l0 -0.12 c0 -0.32 -0.28 -0.4 -0.64 -0.4 c-0.28 0 -0.6 0.04 -0.84 0.04 c-0.64 0 -0.76 0 -0.76 -0.32 c0 -1.6 2.88 -1.48 3.72 -1.48 c1.08 -2.16 1.72 -4.16 3.16 -5.8 l2.8 0 c0 1.88 -1.84 4.04 -2.4 5.76 c0 0.32 0.28 0.4 0.6 0.4 s0.68 -0.08 1 -0.08 c0.36 0 0.6 0.08 0.6 0.4 c0 0.8 -0.92 1.32 -1.56 1.32 c-0.48 0 -0.96 -0.2 -1.44 -0.2 c-1.88 2.96 -4.32 5.92 -5 9.52 c0 0.72 0.92 1.2 1.48 1.12 l2.4 -0.92 l0.12 0 c0.28 0 0.48 0.24 0.48 0.52 c0 0.12 -0.04 0.24 -0.16 0.36 c-1.24 1.08 -2.64 1.72 -4.4 1.72 c-1.8 0 -3.64 -0.16 -3.64 -2.44 z M72.888 36.48 c0.04 -3.96 4.24 -8.16 8.64 -8.16 c1.72 0 2.48 1.6 2.48 2.64 c0 4.16 -7.6 3.12 -7.6 5.52 c0 1.12 0.6 1.88 1.72 1.88 c2.2 0 3.04 -1.44 4.28 -1.44 l0 0 s0 -0.04 0.04 -0.04 c0.12 0 0.32 0.08 0.32 0.52 c0 1 -4.32 2.84 -5.92 2.84 c-2.48 0 -3.96 -1.68 -3.96 -3.76 z M77.168 33.72 c0 0.32 0.16 0.36 0.36 0.36 l0.2 0 c3.2 -1.56 3.56 -1.6 3.56 -3.84 c0 -0.52 -0.28 -0.8 -0.88 -0.8 c-2 0 -2.48 3.48 -3.24 4.28 z M88.60000000000001 36.8 c0.28 -4.6 3.76 -8.08 8.16 -8.48 c1.24 0 2.6 0.48 2.6 1.92 c0 1.24 -0.44 2.24 -1.84 2.24 c-0.76 0 -1.68 -0.48 -1.68 -1.4 c0 -0.08 0.2 -0.64 0.2 -0.72 c0 -0.48 -0.36 -0.6 -1 -0.6 c-0.88 0 -2.52 3.72 -2.92 5.6 c0 1.44 0.56 2.8 2.12 2.8 c1.16 0 2.72 -1.08 3.6 -1.08 c0.32 0 0.56 0.16 0.6 0.64 c-1.52 1.8 -4.24 2.68 -6.68 2.68 c-1.6 -0.64 -3.16 -1.68 -3.16 -3.6 z M104.31200000000001 40 c-0.16 -0.08 -0.36 -0.52 -0.36 -0.72 c0.2 -0.64 1 -1.4 1.32 -2.04 c0.08 -0.12 0.24 -0.76 0.52 -0.92 c0.92 -1.92 7.28 -14.04 8.6 -15.84 c1.2 -1.84 0.76 -4.12 3.72 -4.12 c0.08 0 1.64 -0.04 1.64 0.76 c0 0.48 -0.28 0.96 -0.56 1.32 c-2.24 4.48 -4.2 5.76 -6.04 11.16 l0.28 0 c1.28 -0.76 2.32 -1.12 3.72 -1.12 c1.2 0 2.56 0.92 2.56 1.8 c0 0.92 -0.68 2.08 -1.08 2.48 c-1.04 1.68 -2.32 3.84 -2.32 5.8 c0.28 0.12 0.52 0.16 0.8 0.16 c1 0 1.84 -0.64 2.64 -0.96 c0.2 0 0.2 0.2 0.2 0.32 c0 1.48 -3.52 2.12 -4.76 2.12 c-1.4 0 -2.72 -0.36 -2.72 -1.96 c0 -1.84 1.44 -3.08 2.24 -4.52 c0.68 -1.2 1.32 -2.68 1.32 -3.08 c0 -0.56 -0.64 -0.68 -1.12 -0.68 c-2.12 0 -2.6 2.04 -7.24 9.72 c-0.2 0.32 -1.68 0.52 -1.88 0.52 s-1.32 -0.08 -1.48 -0.2 z"></path></g></svg>